<svg width="24" height="24" viewBox="0 0 24 24" fill="none" xmlns="http://www.w3.org/2000/svg">
<g clip-path="url(#clip0_3_21966)">
<path d="M20.9851 12.5181C21.0901 10.6962 20.6388 8.88539 19.6911 7.32587C18.7433 5.76636 17.3438 4.53181 15.6783 3.78597C14.0127 3.04013 12.1598 2.81824 10.3652 3.14973C8.57062 3.48122 6.91923 4.35043 5.63003 5.64207C4.34083 6.93371 3.47475 8.58674 3.14665 10.3819C2.81856 12.1771 3.04395 14.0297 3.79294 15.6938C4.54193 17.3579 5.77912 18.7551 7.34043 19.6999C8.90174 20.6447 10.7134 21.0926 12.5351 20.9841" stroke="#3449B7" stroke-width="1.5" stroke-linecap="round" stroke-linejoin="round"/>
<path d="M3.60156 9H20.4016" stroke="#3449B7" stroke-width="1.5" stroke-linecap="round" stroke-linejoin="round"/>
<path d="M3.60156 15H15.0016" stroke="#3449B7" stroke-width="1.5" stroke-linecap="round" stroke-linejoin="round"/>
<path d="M11.4997 3C9.81501 5.69961 8.92188 8.81787 8.92188 12C8.92188 15.1821 9.81501 18.3004 11.4997 21" stroke="#3449B7" stroke-width="1.5" stroke-linecap="round" stroke-linejoin="round"/>
<path d="M12.5 3C14.7608 6.62181 15.5758 10.9618 14.783 15.157" stroke="#3449B7" stroke-width="1.5" stroke-linecap="round" stroke-linejoin="round"/>
<g clip-path="url(#clip1_3_21966)">
<path d="M3 12C3 13.1819 3.23279 14.3522 3.68508 15.4442C4.13738 16.5361 4.80031 17.5282 5.63604 18.364C6.47177 19.1997 7.46392 19.8626 8.55585 20.3149C9.64778 20.7672 10.8181 21 12 21C13.1819 21 14.3522 20.7672 15.4442 20.3149C16.5361 19.8626 17.5282 19.1997 18.364 18.364C19.1997 17.5282 19.8626 16.5361 20.3149 15.4442C20.7672 14.3522 21 13.1819 21 12C21 9.61305 20.0518 7.32387 18.364 5.63604C16.6761 3.94821 14.3869 3 12 3C9.61305 3 7.32387 3.94821 5.63604 5.63604C3.94821 7.32387 3 9.61305 3 12Z" stroke="#3449B7" stroke-width="1.5" stroke-linecap="round" stroke-linejoin="round"/>
<path d="M3.60156 9H20.4016" stroke="#3449B7" stroke-width="1.5" stroke-linecap="round" stroke-linejoin="round"/>
<path d="M3.60156 15H20.4016" stroke="#3449B7" stroke-width="1.5" stroke-linecap="round" stroke-linejoin="round"/>
<path d="M11.4997 3C9.81501 5.69961 8.92188 8.81787 8.92188 12C8.92188 15.1821 9.81501 18.3004 11.4997 21" stroke="#3449B7" stroke-width="1.5" stroke-linecap="round" stroke-linejoin="round"/>
<path d="M12.5 3C14.1847 5.69961 15.0778 8.81787 15.0778 12C15.0778 15.1821 14.1847 18.3004 12.5 21" stroke="#3449B7" stroke-width="1.5" stroke-linecap="round" stroke-linejoin="round"/>
</g>
</g>
<defs>
<clipPath id="clip0_3_21966">
<rect width="24" height="24" fill="white"/>
</clipPath>
<clipPath id="clip1_3_21966">
<rect width="24" height="24" fill="white"/>
</clipPath>
</defs>
</svg>
