<svg width="20" height="20" viewBox="0 0 20 20" fill="none" xmlns="http://www.w3.org/2000/svg">
<g clip-path="url(#clip0_3_21956)">
<path d="M20 2.5H3.535L3.5 2.2075C3.42837 1.59951 3.13615 1.03894 2.67874 0.632065C2.22133 0.225186 1.63052 0.000284828 1.01833 0L0 0V1.66667H1.01833C1.22244 1.66669 1.41945 1.74163 1.57198 1.87726C1.72451 2.0129 1.82195 2.19979 1.84583 2.4025L3.16667 13.6258C3.23829 14.2338 3.53051 14.7944 3.98793 15.2013C4.44534 15.6081 5.03614 15.8331 5.64833 15.8333H16.6667V14.1667H5.64833C5.44409 14.1666 5.24699 14.0916 5.09444 13.9558C4.94189 13.82 4.84452 13.6329 4.82083 13.43L4.71167 12.5H18.1967L20 2.5ZM16.8033 10.8333H4.51583L3.73167 4.16667H18.0058L16.8033 10.8333Z" fill="#3449B7"/>
<path d="M5.83366 20.0013C6.75413 20.0013 7.50032 19.2551 7.50032 18.3346C7.50032 17.4142 6.75413 16.668 5.83366 16.668C4.91318 16.668 4.16699 17.4142 4.16699 18.3346C4.16699 19.2551 4.91318 20.0013 5.83366 20.0013Z" fill="#3449B7"/>
<path d="M14.1667 20.0013C15.0871 20.0013 15.8333 19.2551 15.8333 18.3346C15.8333 17.4142 15.0871 16.668 14.1667 16.668C13.2462 16.668 12.5 17.4142 12.5 18.3346C12.5 19.2551 13.2462 20.0013 14.1667 20.0013Z" fill="#3449B7"/>
</g>
<defs>
<clipPath id="clip0_3_21956">
<rect width="20" height="20" fill="white"/>
</clipPath>
</defs>
</svg>
