<svg width="95" height="36" viewBox="0 0 95 36" fill="none" xmlns="http://www.w3.org/2000/svg">
<path d="M34.2282 23.3678L34.9472 23.9546C34.1711 25.1742 33.4978 26.0601 32.9271 26.6123C32.3793 27.1416 31.763 27.4062 31.0782 27.4062C30.3935 27.4062 29.8342 27.1301 29.4005 26.5778C28.9668 26.0256 28.75 25.3353 28.75 24.5069C28.75 22.8961 29.8 19.433 31.9 14.1176C33.9999 8.77916 36.157 4.08501 38.3711 0.0351562L39.8776 0.863536C37.6406 5.23554 35.6206 9.58453 33.8173 13.9105C32.0141 18.2135 31.1125 21.3084 31.1125 23.1953C31.1125 24.2768 31.5119 24.8175 32.3108 24.8175C32.9499 24.8175 33.5891 24.3343 34.2282 23.3678Z" fill="#FFC746"/>
<path d="M27.4325 22.6082L28.22 23.2295C27.5124 24.219 26.5423 25.0474 25.3097 25.7147C24.0771 26.359 22.8788 26.6811 21.7147 26.6811C20.5506 26.6811 19.6147 26.3359 18.9071 25.6456C18.1995 24.9553 17.8457 24.0464 17.8457 22.9189C17.8457 20.8019 18.9528 18.7195 21.1669 16.6715C23.4038 14.6236 25.6635 13.5996 27.9461 13.5996C29.4526 13.5996 30.2059 14.1979 30.2059 15.3944C30.2059 16.637 29.407 17.8911 27.8091 19.1567C26.2342 20.4222 24.0087 21.5728 21.1326 22.6082C21.338 23.1375 21.6576 23.5517 22.0913 23.8508C22.525 24.1499 22.9701 24.2995 23.4266 24.2995C24.4081 24.2995 25.7434 23.7358 27.4325 22.6082ZM20.9614 21.5728C22.8103 20.9285 24.3967 20.1231 25.7206 19.1567C27.0445 18.1902 27.7064 17.3043 27.7064 16.4989C27.7064 16.1998 27.5923 15.9352 27.364 15.7051C27.1358 15.475 26.8733 15.3599 26.5766 15.3599C25.5037 15.3599 24.3396 16.0387 23.0842 17.3963C21.8516 18.731 21.144 20.1231 20.9614 21.5728Z" fill="#FFC746"/>
<path d="M17.3935 22.6082L18.181 23.2295C17.4734 24.219 16.5033 25.0474 15.2707 25.7147C14.0381 26.359 12.8397 26.6811 11.6756 26.6811C10.5115 26.6811 9.57564 26.3359 8.86804 25.6456C8.16044 24.9553 7.80664 24.0464 7.80664 22.9189C7.80664 20.8019 8.91369 18.7195 11.1278 16.6715C13.3647 14.6236 15.6245 13.5996 17.907 13.5996C19.4135 13.5996 20.1668 14.1979 20.1668 15.3944C20.1668 16.637 19.3679 17.8911 17.7701 19.1567C16.1951 20.4222 13.9696 21.5728 11.0936 22.6082C11.299 23.1375 11.6185 23.5517 12.0522 23.8508C12.4859 24.1499 12.931 24.2995 13.3875 24.2995C14.369 24.2995 15.7044 23.7358 17.3935 22.6082ZM10.9224 21.5728C12.7712 20.9285 14.3576 20.1231 15.6815 19.1567C17.0054 18.1902 17.6674 17.3043 17.6674 16.4989C17.6674 16.1998 17.5532 15.9352 17.325 15.7051C17.0967 15.475 16.8342 15.3599 16.5375 15.3599C15.4647 15.3599 14.3006 16.0387 13.0452 17.3963C11.8126 18.731 11.105 20.1231 10.9224 21.5728Z" fill="#FFC746"/>
<path d="M7.46402 13.116L6.36839 17.2924L10.8194 16.7747L9.82649 18.3969L5.99176 18.9147C5.69503 20.1572 5.19286 22.0326 4.48526 24.5407C2.95594 29.9712 2.19127 33.4113 2.19127 34.861L0 36C0 34.0211 0.844553 30.2013 2.53366 24.5407C3.40104 21.7105 3.93744 19.8926 4.14288 19.0872C3.34397 19.2943 2.61355 19.3979 1.9516 19.3979C0.650534 19.3979 0 18.8802 0 17.8447C0 17.2694 0.43369 16.5791 1.30107 15.7737C2.55649 14.6002 4.05157 13.5647 5.78633 12.6673C7.13305 8.04219 8.10315 5.14286 8.69662 3.96932C9.49552 2.38159 10.2259 1.36913 10.8879 0.931927C11.8694 0.310643 12.8851 0 13.9351 0C14.9851 0 15.727 0.299137 16.1606 0.897412C16.5943 1.49569 16.7883 2.19751 16.7427 3.00288C16.6286 5.90221 13.5357 9.27325 7.46402 13.116ZM12.9422 2.93385C11.664 2.93385 10.7167 3.55513 10.1004 4.7977C9.62106 5.76414 9.19878 6.92617 8.83357 8.2838C8.46836 9.64142 8.20586 10.5733 8.04608 11.0796C9.3015 10.2972 10.6482 9.23873 12.0862 7.90412C13.5243 6.56951 14.2661 5.40748 14.3118 4.41803C14.3574 3.42857 13.9009 2.93385 12.9422 2.93385ZM4.62222 17.465L5.37547 14.4276C4.50809 14.7958 3.82332 15.1755 3.32115 15.5666C2.84181 15.9578 2.60214 16.2915 2.60214 16.5676C2.60214 17.1659 3.2755 17.465 4.62222 17.465Z" fill="#FFC746"/>
<path d="M82.2012 25.9494V10.043H88.4264C89.6231 10.043 90.6427 10.2734 91.4851 10.7342C92.3274 11.1899 92.9694 11.8242 93.4112 12.6371C93.858 13.4448 94.0815 14.3769 94.0815 15.4332C94.0815 16.4894 93.8555 17.4215 93.4035 18.2292C92.9515 19.037 92.2966 19.6661 91.4388 20.1166C90.5862 20.567 89.5538 20.7923 88.3416 20.7923H84.3738V18.0972H87.8023C88.4444 18.0972 88.9734 17.9859 89.3894 17.7632C89.8106 17.5354 90.1239 17.2221 90.3294 16.8234C90.54 16.4195 90.6453 15.9561 90.6453 15.4332C90.6453 14.905 90.54 14.4442 90.3294 14.0507C90.1239 13.652 89.8106 13.3439 89.3894 13.1264C88.9683 12.9038 88.4341 12.7924 87.7869 12.7924H85.5372V25.9494H82.2012Z" fill="#3449B7"/>
<path d="M80.7293 17.9969C80.7293 19.7315 80.4032 21.2072 79.7508 22.424C79.1037 23.6408 78.2202 24.5702 77.1005 25.2123C75.9859 25.8492 74.7327 26.1676 73.3407 26.1676C71.9385 26.1676 70.6801 25.8466 69.5655 25.2045C68.451 24.5624 67.5701 23.633 66.9229 22.4162C66.2757 21.1994 65.9521 19.7263 65.9521 17.9969C65.9521 16.2623 66.2757 14.7866 66.9229 13.5698C67.5701 12.353 68.451 11.4261 69.5655 10.7893C70.6801 10.1472 71.9385 9.82617 73.3407 9.82617C74.7327 9.82617 75.9859 10.1472 77.1005 10.7893C78.2202 11.4261 79.1037 12.353 79.7508 13.5698C80.4032 14.7866 80.7293 16.2623 80.7293 17.9969ZM77.3471 17.9969C77.3471 16.8733 77.1801 15.9257 76.8463 15.1542C76.5175 14.3827 76.0527 13.7976 75.4518 13.3989C74.8508 13.0002 74.1471 12.8009 73.3407 12.8009C72.5343 12.8009 71.8307 13.0002 71.2297 13.3989C70.6288 13.7976 70.1614 14.3827 69.8275 15.1542C69.4988 15.9257 69.3344 16.8733 69.3344 17.9969C69.3344 19.1205 69.4988 20.068 69.8275 20.8395C70.1614 21.6111 70.6288 22.1962 71.2297 22.5948C71.8307 22.9935 72.5343 23.1929 73.3407 23.1929C74.1471 23.1929 74.8508 22.9935 75.4518 22.5948C76.0527 22.1962 76.5175 21.6111 76.8463 20.8395C77.1801 20.068 77.3471 19.1205 77.3471 17.9969Z" fill="#3449B7"/>
<path d="M51.042 25.9494V10.043H54.378V16.6059H61.1502V10.043H64.4786V25.9494H61.1502V19.3787H54.378V25.9494H51.042Z" fill="#3449B7"/>
<path d="M46.3855 14.6183C46.3239 13.9918 46.0594 13.5051 45.592 13.1581C45.1246 12.8112 44.4902 12.6378 43.689 12.6378C43.1445 12.6378 42.6848 12.7154 42.3099 12.8708C41.9349 13.0209 41.6473 13.2306 41.447 13.4999C41.2518 13.7691 41.1542 14.0746 41.1542 14.4164C41.1439 14.7012 41.203 14.9497 41.3314 15.162C41.465 15.3743 41.6473 15.5581 41.8784 15.7134C42.1096 15.8636 42.3766 15.9956 42.6797 16.1095C42.9827 16.2183 43.3063 16.3115 43.6505 16.3891L45.0681 16.7309C45.7563 16.8862 46.3881 17.0933 46.9634 17.3522C47.5386 17.6111 48.0369 17.9296 48.458 18.3076C48.8792 18.6855 49.2054 19.1308 49.4365 19.6435C49.6728 20.1561 49.7935 20.7438 49.7986 21.4065C49.7935 22.38 49.5469 23.224 49.059 23.9385C48.5762 24.6479 47.8776 25.1993 46.9634 25.5929C46.0542 25.9812 44.9576 26.1754 43.6736 26.1754C42.3998 26.1754 41.2903 25.9786 40.3452 25.5851C39.4053 25.1916 38.6708 24.6091 38.1418 23.8375C37.6179 23.0609 37.3431 22.1004 37.3174 20.956H40.5456C40.5815 21.4894 40.733 21.9347 41.0001 22.2919C41.2723 22.644 41.6345 22.9107 42.0864 23.0919C42.5436 23.268 43.0598 23.356 43.635 23.356C44.2 23.356 44.6906 23.2732 45.1066 23.1075C45.5278 22.9418 45.8539 22.7114 46.0851 22.4162C46.3162 22.1211 46.4318 21.7819 46.4318 21.3988C46.4318 21.0415 46.3265 20.7412 46.1159 20.4978C45.9104 20.2544 45.6074 20.0473 45.2068 19.8765C44.8113 19.7056 44.3259 19.5503 43.7506 19.4104L42.0325 18.9755C40.7022 18.6493 39.6518 18.1393 38.8814 17.4454C38.1109 16.7516 37.7283 15.817 37.7334 14.6416C37.7283 13.6785 37.9825 12.8371 38.4962 12.1174C39.0149 11.3977 39.7263 10.8359 40.6303 10.432C41.5343 10.0281 42.5616 9.82617 43.7121 9.82617C44.8832 9.82617 45.9053 10.0281 46.7785 10.432C47.6568 10.8359 48.3399 11.3977 48.8279 12.1174C49.3158 12.8371 49.5675 13.6708 49.5829 14.6183H46.3855Z" fill="#3449B7"/>
</svg>
